<svg width="40" height="40" xmlns="http://www.w3.org/2000/svg">

    <g>
        <title>background</title>
        <rect fill="none" id="canvas_background" height="42" width="42" y="-1" x="-1"/>
    </g>
    <g>
        <title>Layer 1</title>
        <g id="svg_1">
            <g id="svg_2">
                <path id="svg_3" d="m20,6.001999c-7.730999,0 -13.999001,6.268002 -13.999001,13.998001c0,7.730999 6.268002,13.999001 13.999001,13.999001c7.73,0 13.998001,-6.268002 13.998001,-13.999001c0,-7.73 -6.268002,-13.998001 -13.998001,-13.998001zm0,23.997002c-5.521999,0 -9.999001,-4.477001 -9.999001,-9.999001c0,-5.521 4.477001,-9.998001 9.999001,-9.998001c5.521,0 9.999001,4.477001 9.999001,9.998001c0,5.521999 -4.478001,9.999001 -9.999001,9.999001zm-4,-9.999001c0,2.209 1.791,4 4,4s3.999001,-1.791 3.999001,-4s-3.999001,-7.999001 -3.999001,-7.999001s-4,5.790001 -4,7.999001zm5,0c0,0.553001 -0.448002,1 -1,1c-0.553001,0 -1,-0.446999 -1,-1c0,-0.551998 0.446999,-1 1,-1c0.551998,0 1,0.448002 1,1z" clip-rule="evenodd" fill-rule="evenodd"/>
            </g>
        </g>
    </g>
</svg>